<svg width="30" height="30" viewBox="0 0 30 30" fill="none" xmlns="http://www.w3.org/2000/svg">
<path d="M3 15C3 8.37188 8.37188 3 15 3C21.6281 3 27 8.37188 27 15C27 21.6281 21.6281 27 15 27C8.37188 27 3 21.6281 3 15ZM18 19.5C18 18.2391 17.2266 17.1609 16.125 16.7203V8.625C16.125 8.00156 15.6234 7.5 15 7.5C14.3766 7.5 13.875 8.00156 13.875 8.625V16.7203C12.7734 17.1656 12 18.2437 12 19.5C12 21.1547 13.3453 22.5 15 22.5C16.6547 22.5 18 21.1547 18 19.5ZM9.75 11.25C10.5797 11.25 11.25 10.5797 11.25 9.75C11.25 8.92031 10.5797 8.25 9.75 8.25C8.92031 8.25 8.25 8.92031 8.25 9.75C8.25 10.5797 8.92031 11.25 9.75 11.25ZM9 15C9 14.1703 8.32969 13.5 7.5 13.5C6.67031 13.5 6 14.1703 6 15C6 15.8297 6.67031 16.5 7.5 16.5C8.32969 16.5 9 15.8297 9 15ZM22.5 16.5C23.3297 16.5 24 15.8297 24 15C24 14.1703 23.3297 13.5 22.5 13.5C21.6703 13.5 21 14.1703 21 15C21 15.8297 21.6703 16.5 22.5 16.5ZM21.75 9.75C21.75 8.92031 21.0797 8.25 20.25 8.25C19.4203 8.25 18.75 8.92031 18.75 9.75C18.75 10.5797 19.4203 11.25 20.25 11.25C21.0797 11.25 21.75 10.5797 21.75 9.75Z" fill="white"/>
</svg>
